<?xml version="1.0" encoding="utf-8"?>
<!-- Generator: Adobe Illustrator 21.0.0, SVG Export Plug-In . SVG Version: 6.00 Build 0)  -->
<svg version="1.1" id="color" xmlns="http://www.w3.org/2000/svg" xmlns:xlink="http://www.w3.org/1999/xlink" x="0px" y="0px"
	 viewBox="0 0 32 32" enable-background="new 0 0 32 32" xml:space="preserve">
<g>
	<path fill="#8BC02F" d="M19,32h-6c-0.552,0-1-0.447-1-1v-6c0-0.553,0.448-1,1-1h6c0.552,0,1,0.447,1,1v6C20,31.553,19.552,32,19,32
		z"/>
</g>
<g>
	<path fill="#42A141" d="M16,13c-0.256,0-0.512-0.098-0.707-0.293l-4.5-4.5c-0.342-0.342-0.39-0.879-0.115-1.276l4.5-6.5
		c0.374-0.539,1.271-0.539,1.645,0l4.5,6.5c0.275,0.397,0.227,0.935-0.115,1.276l-4.5,4.5C16.512,12.902,16.256,13,16,13z"/>
</g>
<g>
	<path fill="#EBEBEB" d="M10.5,17c-0.264,0-0.519-0.104-0.707-0.293l-4-4c-0.273-0.273-0.365-0.68-0.235-1.043l2.5-7
		C8.182,4.317,8.486,4.066,8.85,4.012C9.217,3.954,9.579,4.104,9.8,4.4l4.5,6c0.244,0.325,0.267,0.766,0.058,1.114l-3,5
		c-0.158,0.264-0.43,0.44-0.735,0.478C10.582,16.997,10.541,17,10.5,17z"/>
</g>
<g>
	<path fill="#EBEBEB" d="M21.339,17.5c-0.044,0-0.089-0.003-0.134-0.009c-0.323-0.044-0.605-0.243-0.754-0.532l-2.839-5.5
		c-0.176-0.341-0.142-0.752,0.089-1.059l4.5-6c0.221-0.294,0.585-0.444,0.95-0.389c0.364,0.055,0.668,0.306,0.792,0.652l2.5,7
		c0.125,0.351,0.045,0.741-0.208,1.015l-4.161,4.5C21.882,17.385,21.616,17.5,21.339,17.5z"/>
</g>
<g>
	<path fill="#42A141" d="M21,26H11c-4.411,0-8-3.589-8-8v-8c0-0.397,0.235-0.757,0.599-0.916c0.363-0.159,0.787-0.09,1.079,0.182
		L10.891,15h10.218l6.213-5.734c0.292-0.271,0.716-0.34,1.079-0.182C28.765,9.243,29,9.603,29,10v8C29,22.411,25.411,26,21,26z"/>
</g>
<g>
	<path fill="#8BC02F" d="M16,26c-3.86,0-7-3.141-7-7c0-3.555,5.576-10.801,6.212-11.615c0.379-0.486,1.197-0.486,1.576,0
		C17.424,8.199,23,15.445,23,19C23,22.859,19.86,26,16,26z"/>
</g>
</svg>
