<?xml version="1.0" encoding="utf-8"?>
<!-- Generator: Adobe Illustrator 21.0.0, SVG Export Plug-In . SVG Version: 6.00 Build 0)  -->
<svg version="1.1" id="color" xmlns="http://www.w3.org/2000/svg" xmlns:xlink="http://www.w3.org/1999/xlink" x="0px" y="0px"
	 viewBox="0 0 32 32" enable-background="new 0 0 32 32" xml:space="preserve">
<g>
	<path fill="#8BC02F" d="M3,32c-1.654,0-3-1.346-3-3c0-0.803,0.313-1.557,0.88-2.122c0.025-0.025,0.051-0.048,0.078-0.07
		l11.476-11.475c0.188-0.188,0.442-0.293,0.707-0.293l0,0c0.265,0,0.52,0.105,0.707,0.293l2.82,2.82
		c0.391,0.391,0.391,1.023,0,1.414L5.191,31.043c-0.021,0.026-0.045,0.053-0.07,0.078C4.555,31.688,3.802,32,3,32z"/>
</g>
<g>
	<path fill="#EBEBEB" d="M18.92,9.97c1.25,3.57,1.76,7.75,1.13,11.02h0.03c2.32,0,4.64-0.88,6.41-2.65
		c0.92-0.91,1.83-2.65,2.64-4.67C26.77,11.46,22.85,9.58,18.92,9.97z"/>
</g>
<g>
	<path fill="#8BC02F" d="M31.117,0.883c-0.69-0.68-1.63-0.99-2.58-0.85c-3.15,0.48-9.36,2.15-12.92,4.1c1.34,1.4,2.48,3.49,3.3,5.84
		c3.93-0.39,7.85,1.49,10.21,3.7c1.38-3.46,2.47-7.77,2.84-10.21C32.107,2.513,31.797,1.573,31.117,0.883z"/>
</g>
<g>
	<path fill="#42A141" d="M15.62,4.13c-0.82,0.45-1.49,0.91-1.96,1.38C11.94,7.22,11,9.5,11,11.92c0,2.43,0.94,4.71,2.66,6.42
		c1.76,1.76,4.07,2.64,6.39,2.65C21.09,15.56,19,7.64,15.62,4.13z"/>
</g>
</svg>
