<?xml version="1.0" encoding="utf-8"?>
<!-- Generator: Adobe Illustrator 21.0.0, SVG Export Plug-In . SVG Version: 6.00 Build 0)  -->
<svg version="1.1" id="color" xmlns="http://www.w3.org/2000/svg" xmlns:xlink="http://www.w3.org/1999/xlink" x="0px" y="0px"
	 viewBox="0 0 32 32" enable-background="new 0 0 32 32" xml:space="preserve">
<g>
	<path fill="#8D5836" d="M21.861,18.441c-2.497,0.669-5.159,0.697-7.969,0.08c-3.551-0.78-6.362-3.521-7.335-7.154
		C5.985,9.228,6.502,7.033,7.942,5.495c1.375-1.471,3.359-2.08,5.443-1.667c3.232,0.639,6.05-0.147,8.621-2.404
		c1.501-1.319,3.551-1.754,5.487-1.168c2.048,0.621,3.603,2.234,4.161,4.317c0.969,3.617-0.141,7.523-2.827,9.953l0,0
		C26.682,16.466,24.354,17.773,21.861,18.441z M28.157,13.784l0.009-0.003L28.157,13.784z"/>
</g>
<g>
	<path fill="#EBEBEB" d="M19.839,10.703c-3.227,0.865-6.656-0.801-7.974-3.876L11.13,5.094C11,4.787,11.032,4.435,11.215,4.156
		c0.183-0.28,0.493-0.449,0.826-0.452c0.451-0.005,0.903,0.04,1.347,0.13c3.228,0.636,6.048-0.154,8.619-2.414
		c0.325-0.289,0.697-0.546,1.102-0.76c0.295-0.153,0.639-0.154,0.93-0.003c0.292,0.152,0.489,0.438,0.529,0.765l0.238,1.934
		c0.189,1.638-0.207,3.269-1.113,4.603C22.775,9.308,21.406,10.283,19.839,10.703z"/>
</g>
<g>
	<path fill="#BF9760" d="M12.951,31.998c-2.585,0-5.163-0.662-7.718-1.985C2.005,28.34,0,24.965,0,21.204
		c0-2.214,1.067-4.2,2.856-5.313c1.709-1.065,3.783-1.14,5.689-0.202c2.956,1.454,5.882,1.423,8.949-0.091
		c1.791-0.885,3.884-0.775,5.603,0.292C24.915,17.02,26,18.98,26,21.137c0,3.744-2.083,7.23-5.307,8.882l0,0
		C18.118,31.338,15.531,31.998,12.951,31.998z M20.237,29.129h0.01H20.237z"/>
</g>
<g>
	<path fill="#EBEBEB" d="M13,24c-3.341,0-6.222-2.496-6.699-5.808L6.04,16.328c-0.046-0.33,0.075-0.662,0.324-0.884
		c0.249-0.223,0.593-0.306,0.915-0.223c0.437,0.112,0.862,0.272,1.268,0.474c2.953,1.449,5.882,1.417,8.95-0.101
		c0.389-0.195,0.814-0.347,1.261-0.449c0.324-0.072,0.657,0.017,0.899,0.238c0.242,0.223,0.359,0.55,0.313,0.875l-0.271,1.93
		c-0.241,1.631-1.046,3.104-2.267,4.158C16.197,23.413,14.623,24,13,24z"/>
</g>
</svg>
