<?xml version="1.0" encoding="utf-8"?>
<!-- Generator: Adobe Illustrator 21.0.0, SVG Export Plug-In . SVG Version: 6.00 Build 0)  -->
<svg version="1.1" id="color" xmlns="http://www.w3.org/2000/svg" xmlns:xlink="http://www.w3.org/1999/xlink" x="0px" y="0px"
	 viewBox="0 0 32 32" enable-background="new 0 0 32 32" xml:space="preserve">
<g>
	<path fill="#42A141" d="M18,32h-4c-1.654,0-3-1.346-3-3v-0.343c0-3.381-1.316-6.56-3.707-8.95c-0.228-0.228-0.332-0.55-0.28-0.867
		c0.052-0.317,0.252-0.591,0.54-0.734l8-4c0.281-0.141,0.613-0.141,0.895,0l8,4c0.287,0.144,0.488,0.417,0.54,0.734
		s-0.053,0.64-0.28,0.867C22.316,22.098,21,25.276,21,28.657V29C21,30.654,19.654,32,18,32z"/>
</g>
<g>
	<path fill="#EBEBEB" d="M16,25c-0.552,0-1-0.447-1-1v-0.395c0-1.923-0.955-3.707-2.555-4.773c-0.459-0.307-0.583-0.927-0.277-1.387
		c0.305-0.459,0.926-0.584,1.387-0.277C15.712,18.605,17,21.013,17,23.605V24C17,24.553,16.552,25,16,25z"/>
</g>
<g>
	<path fill="#8BC02F" d="M24.821,20c-1.708,0-3.239-0.832-4.187-2.164C19.5,19.19,17.828,20,16,20c-1.829,0-3.5-0.81-4.635-2.164
		C10.418,19.168,8.887,20,7.179,20C4.323,20,2,17.639,2,14.737c0-2.014,1.145-3.824,2.88-4.699C4.817,9.713,4.786,9.384,4.786,9.053
		c0-2.902,2.323-5.264,5.179-5.264c0.348,0,0.693,0.037,1.034,0.111C11.592,1.657,13.611,0,16,0c2.389,0,4.408,1.657,5.001,3.9
		c0.342-0.074,0.688-0.111,1.035-0.111c2.855,0,5.178,2.361,5.178,5.264c0,0.331-0.031,0.66-0.094,0.985
		c1.734,0.875,2.88,2.686,2.88,4.699C30,17.639,27.677,20,24.821,20z"/>
</g>
</svg>
