<?xml version="1.0" encoding="utf-8"?>
<!-- Generator: Adobe Illustrator 21.0.0, SVG Export Plug-In . SVG Version: 6.00 Build 0)  -->
<svg version="1.1" id="color" xmlns="http://www.w3.org/2000/svg" xmlns:xlink="http://www.w3.org/1999/xlink" x="0px" y="0px"
	 viewBox="0 0 32 32" enable-background="new 0 0 32 32" xml:space="preserve">
<g>
	<path fill="#8BC02F" d="M16,12c-0.22,0-0.439-0.072-0.621-0.216l-7.05-5.586c-0.208-0.165-0.343-0.406-0.372-0.67
		C7.927,5.263,8.003,4.998,8.169,4.79c2.535-3.177,5.168-4.789,7.825-4.79c0.001,0,0.002,0,0.003,0c2.658,0,5.294,1.611,7.834,4.789
		c0.166,0.208,0.242,0.473,0.212,0.737c-0.029,0.264-0.164,0.506-0.372,0.671l-7.05,5.586C16.439,11.928,16.22,12,16,12z"/>
</g>
<g>
	<path fill="#BEBEBE" d="M25.999,17c-0.173,0-0.349-0.045-0.508-0.139l-10-5.91c-0.272-0.161-0.452-0.441-0.485-0.755
		c-0.033-0.314,0.083-0.625,0.315-0.84c1.971-1.819,4.047-3.574,7.752-5.035c1.875-0.744,4.047-0.157,5.167,1.395
		c1.315,1.798,2.038,4.339,2.228,5.075c0.074,0.284,0.019,0.586-0.15,0.827l-3.5,4.96C26.623,16.851,26.314,17,25.999,17z"/>
</g>
<g>
	<path fill="#EBEBEB" d="M17,26c-0.258,0-0.507-0.1-0.693-0.279l-14.5-13.96c-0.26-0.25-0.365-0.621-0.274-0.97
		c0.189-0.736,0.912-3.277,2.23-5.081c1.118-1.548,3.294-2.132,5.166-1.389c4.056,1.608,6.253,3.642,8.191,5.435
		c1.921,1.778,3.735,3.457,7.195,4.605c0.302,0.101,0.538,0.339,0.636,0.642c0.099,0.303,0.046,0.635-0.141,0.893l-7,9.69
		c-0.17,0.234-0.433,0.384-0.722,0.41C17.06,25.999,17.029,26,17,26z"/>
</g>
<g>
	<path fill="#42A141" d="M25,29c-0.076,0-0.153-0.009-0.229-0.026c-0.289-0.068-0.533-0.261-0.666-0.526l-1.42-2.84
		c-0.53-1.062-1.644-1.747-2.836-1.747c-0.342,0-0.645,0.044-0.928,0.133c-1.152,0.371-2.554,0.128-3.545-0.661
		C15.139,23.142,15,22.854,15,22.548c0-0.305,0.14-0.593,0.379-0.782c0.36-0.284,0.6-0.692,0.675-1.147
		c0.531-3.248,3.396-3.183,4.469-3.153l0.268,0.005c1.219,0,2.21-1,2.21-2.229c0-2.06,1.461-3.863,3.473-4.289l1.896-0.409
		c0.886-0.193,1.802,0.024,2.511,0.596C31.592,11.711,32,12.565,32,13.48V16c0,5.072-2.332,9.737-6.398,12.799
		C25.427,28.931,25.215,29,25,29z"/>
</g>
<g>
	<path fill="#8BC02F" d="M16,32c-4.276,0-8.293-1.667-11.309-4.694C1.667,24.293,0,20.276,0,16v-2.53c0-0.91,0.406-1.76,1.114-2.332
		c0.708-0.572,1.624-0.789,2.517-0.596l1.896,0.405C7.54,11.379,9,13.185,9,15.243c0,0.65,0.283,1.265,0.775,1.688
		s1.141,0.608,1.786,0.51c2.07-0.322,4.043,1.105,4.389,3.177c0.089,0.535,0.392,0.986,0.854,1.271
		c0.455,0.282,1.01,0.354,1.521,0.195c2.429-0.746,5.015,0.361,6.151,2.633l1.418,2.836c0.216,0.432,0.093,0.956-0.294,1.246
		C22.816,30.894,19.496,32,16,32z"/>
</g>
</svg>
