<?xml version="1.0" encoding="utf-8"?>
<!-- Generator: Adobe Illustrator 21.0.0, SVG Export Plug-In . SVG Version: 6.00 Build 0)  -->
<svg version="1.1" id="color" xmlns="http://www.w3.org/2000/svg" xmlns:xlink="http://www.w3.org/1999/xlink" x="0px" y="0px"
	 viewBox="0 0 32 32" enable-background="new 0 0 32 32" xml:space="preserve">
<g>
	<path fill="#42A141" d="M23.499,10c-0.493,0-0.923-0.365-0.99-0.868c-0.073-0.547,0.312-1.051,0.859-1.124l7.5-1
		c0.543-0.068,1.051,0.311,1.124,0.859c0.073,0.547-0.312,1.051-0.859,1.124l-7.5,1C23.587,9.997,23.543,10,23.499,10z"/>
</g>
<g>
	<path fill="#42A141" d="M23,9.5c-0.085,0-0.172-0.011-0.258-0.034c-0.534-0.143-0.851-0.69-0.708-1.224l2-7.5
		c0.142-0.534,0.689-0.851,1.224-0.708c0.534,0.143,0.851,0.69,0.708,1.224l-2,7.5C23.847,9.205,23.442,9.5,23,9.5z"/>
</g>
<g>
	<path fill="#42A141" d="M23.5,9.5c-0.256,0-0.512-0.098-0.707-0.293c-0.391-0.391-0.391-1.023,0-1.414l7.5-7.5
		c0.391-0.391,1.023-0.391,1.414,0s0.391,1.023,0,1.414l-7.5,7.5C24.012,9.402,23.756,9.5,23.5,9.5z"/>
</g>
<g>
	<path fill="#E94B35" d="M4,32c-2.206,0-4-1.794-4-4c0-0.872,0.276-1.701,0.799-2.397L13.397,8.803C14.733,7.021,16.776,6,19,6
		c3.86,0,7,3.14,7,7c0,2.225-1.022,4.267-2.803,5.603L6.398,31.201C5.702,31.724,4.873,32,4,32z"/>
</g>
<g>
	<path fill="#C23824" d="M16.71,12.71C16.51,12.9,16.26,13,16,13s-0.51-0.1-0.71-0.29l-2.76-2.76L13.4,8.8
		c0.12-0.16,0.24-0.31,0.37-0.45l2.94,2.94C17.1,11.68,17.1,12.32,16.71,12.71z"/>
</g>
<g>
	<path fill="#C23824" d="M19.67,21.25l-1.62,1.22l-2.76-2.76c-0.39-0.39-0.39-1.03,0-1.42c0.39-0.39,1.03-0.39,1.42,0L19.67,21.25z"
		/>
</g>
<g>
	<path fill="#C23824" d="M9.71,20.71C9.51,20.9,9.26,21,9,21s-0.51-0.1-0.71-0.29l-2.18-2.18l1.21-1.63l2.39,2.39
		C10.1,19.68,10.1,20.32,9.71,20.71z"/>
</g>
<g>
	<path fill="#C23824" d="M9.95,28.53l-1.62,1.22l-2.04-2.04c-0.39-0.39-0.39-1.03,0-1.42c0.39-0.39,1.03-0.39,1.42,0L9.95,28.53z"/>
</g>
</svg>
