<?xml version="1.0" encoding="utf-8"?>
<!-- Generator: Adobe Illustrator 21.0.0, SVG Export Plug-In . SVG Version: 6.00 Build 0)  -->
<svg version="1.1" id="color" xmlns="http://www.w3.org/2000/svg" xmlns:xlink="http://www.w3.org/1999/xlink" x="0px" y="0px"
	 viewBox="0 0 32 32" enable-background="new 0 0 32 32" xml:space="preserve">
<g>
	<path fill="#F2C500" d="M16,19.12c-0.148,0-0.297-0.033-0.434-0.099l-12.36-5.95c-0.452-0.217-0.672-0.735-0.517-1.211
		c0.229-0.703,0.676-1.302,1.294-1.736c0.018-0.015,0.037-0.028,0.054-0.04c0.565-0.385,0.799-1.109,0.569-1.761
		C4.472,7.943,4.4,7.537,4.4,7.15c0-0.945,0.392-1.869,1.076-2.535c0.686-0.667,1.578-1.02,2.551-0.995
		c0.729,0,1.315-0.437,1.502-1.086C9.982,1.015,11.348,0,12.93,0c0.778,0,1.518,0.251,2.138,0.726
		c0.537,0.409,1.323,0.411,1.866-0.002C17.552,0.251,18.292,0,19.07,0c1.583,0,2.948,1.015,3.398,2.524
		c0.189,0.659,0.775,1.096,1.462,1.096h0.14c1.141,0,2.215,0.556,2.875,1.486c0.661,0.933,0.829,2.135,0.449,3.216
		C27.337,8.481,27.31,8.646,27.31,8.83c0,0.504,0.245,0.974,0.656,1.255c0.02,0.014,0.039,0.028,0.058,0.043
		c0.614,0.434,1.059,1.032,1.287,1.731c0.155,0.476-0.065,0.994-0.517,1.211l-12.36,5.95C16.297,19.087,16.148,19.12,16,19.12z"/>
</g>
<g>
	<path fill="#42A141" d="M19.94,30.69c-0.151,0-0.301-0.034-0.439-0.102c-0.239-0.117-0.422-0.324-0.508-0.576l-3.94-11.57
		c-0.11-0.324-0.047-0.683,0.168-0.949c3.318-4.121,8.618-6.305,15.752-6.493c0.274-0.028,0.54,0.098,0.734,0.292
		c0.194,0.194,0.299,0.459,0.292,0.734c-0.261,9.737-4.208,15.998-11.732,18.608C20.161,30.671,20.05,30.69,19.94,30.69z"/>
</g>
<g>
	<path fill="#EBEBEB" d="M21,10c-0.552,0-1-0.448-1-1c0-0.551-0.449-1-1-1c-0.552,0-1-0.448-1-1s0.448-1,1-1c1.654,0,3,1.346,3,3
		C22,9.552,21.552,10,21,10z"/>
</g>
<g>
	<path fill="#EBEBEB" d="M13,10c-1.654,0-3-1.346-3-3c0-0.552,0.448-1,1-1s1,0.448,1,1c0,0.551,0.449,1,1,1c0.552,0,1,0.448,1,1
		S13.552,10,13,10z"/>
</g>
<g>
	<path fill="#8BC02F" d="M20,32c-0.009,0-0.018,0-0.027,0C7.069,31.651,0.349,24.931,0,12.027c-0.007-0.274,0.098-0.54,0.292-0.734
		c0.194-0.194,0.46-0.311,0.734-0.292c12.904,0.349,19.624,7.068,19.973,19.973c0.007,0.274-0.098,0.54-0.292,0.734
		C20.519,31.895,20.265,32,20,32z"/>
</g>
</svg>
