<?xml version="1.0" encoding="utf-8"?>
<!-- Generator: Adobe Illustrator 21.0.0, SVG Export Plug-In . SVG Version: 6.00 Build 0)  -->
<svg version="1.1" id="color" xmlns="http://www.w3.org/2000/svg" xmlns:xlink="http://www.w3.org/1999/xlink" x="0px" y="0px"
	 viewBox="0 0 32 32" enable-background="new 0 0 32 32" xml:space="preserve">
<g>
	<path fill="#42A141" d="M4.5,32C2.019,32,0,29.981,0,27.5c0-1.305,0.565-2.544,1.552-3.4c0.025-0.022,0.053-0.043,0.08-0.063
		l11.963-10.382c0.396-0.344,0.991-0.323,1.362,0.048l3.34,3.34c0.371,0.371,0.393,0.966,0.048,1.362L7.963,30.368
		c-0.02,0.027-0.041,0.054-0.063,0.08C7.044,31.434,5.805,32,4.5,32z"/>
</g>
<g>
	<path fill="#8BC02F" d="M21.5,21C21.499,21,21.499,21,21.5,21c-1.176,0-2.236-0.602-2.838-1.61c-0.299-0.498-0.88-0.734-1.44-0.596
		c-1.144,0.287-2.318-0.038-3.148-0.869c-0.82-0.821-1.146-1.979-0.877-3.105c0.003-0.014,0.006-0.027,0.01-0.041
		c0.142-0.563-0.099-1.142-0.597-1.44C11.602,12.735,11,11.674,11,10.5s0.602-2.235,1.609-2.838c0.498-0.298,0.738-0.876,0.597-1.44
		c-0.004-0.014-0.007-0.028-0.01-0.042c-0.27-1.125,0.058-2.283,0.877-3.104c0.83-0.831,2.007-1.155,3.146-0.87
		c0.008,0.002,0.016,0.004,0.023,0.006c0.555,0.132,1.125-0.109,1.42-0.602C19.265,0.602,20.326,0,21.5,0c0.001,0,0.001,0,0.001,0
		c1.175,0,2.235,0.602,2.837,1.61c0.299,0.498,0.884,0.737,1.44,0.596c1.144-0.289,2.318,0.038,3.148,0.869
		c0.82,0.821,1.146,1.979,0.877,3.105c-0.003,0.014-0.006,0.027-0.01,0.041c-0.142,0.563,0.099,1.142,0.597,1.44
		C31.398,8.265,32,9.326,32,10.5s-0.602,2.235-1.609,2.838l0,0c-0.498,0.298-0.738,0.877-0.597,1.44
		c0.004,0.014,0.007,0.028,0.01,0.042c0.27,1.125-0.058,2.283-0.877,3.104c-0.83,0.831-2.007,1.156-3.146,0.87
		c-0.008-0.002-0.016-0.004-0.023-0.006c-0.558-0.131-1.125,0.108-1.42,0.602C23.735,20.398,22.674,21,21.5,21z"/>
</g>
<g>
	<path fill="#EBEBEB" d="M19,8c-0.553,0-1-0.448-1-1c0-1.654,1.346-3,3-3c0.553,0,1,0.448,1,1s-0.447,1-1,1c-0.552,0-1,0.449-1,1
		C20,7.552,19.553,8,19,8z"/>
</g>
<g>
	<path fill="#EBEBEB" d="M21,16c-1.654,0-3-1.346-3-3c0-0.552,0.447-1,1-1s1,0.448,1,1c0,0.551,0.448,1,1,1c0.553,0,1,0.448,1,1
		S21.553,16,21,16z"/>
</g>
</svg>
