<?xml version="1.0" encoding="utf-8"?>
<!-- Generator: Adobe Illustrator 21.0.0, SVG Export Plug-In . SVG Version: 6.00 Build 0)  -->
<svg version="1.1" id="color" xmlns="http://www.w3.org/2000/svg" xmlns:xlink="http://www.w3.org/1999/xlink" x="0px" y="0px"
	 viewBox="0 0 32 32" enable-background="new 0 0 32 32" xml:space="preserve">
<g>
	<path fill="#F2C500" d="M23,21c-0.022,0-0.045-0.001-0.067-0.002l-10.52-0.71c-0.507-0.034-0.908-0.443-0.932-0.951l-0.48-10.29
		c-0.015-0.32,0.124-0.628,0.374-0.828l5.314-4.252C19.888,1.409,23.904,0,28,0c2.206,0,4,1.794,4,4
		c0,4.095-1.409,8.111-3.967,11.31l-4.252,5.315C23.591,20.863,23.303,21,23,21z"/>
</g>
<g>
	<path fill="#42A141" d="M9.12,32c-1.878,0-3.636-0.73-4.95-2.056L2.755,28.54c-0.191-0.19-0.298-0.451-0.295-0.721
		c0.003-0.271,0.116-0.528,0.313-0.714l9.021-8.54c0.126-0.119,0.28-0.204,0.448-0.245c4.5-1.107,9.317-0.301,13.22,2.21l4.081,2.63
		c0.391,0.252,0.557,0.741,0.399,1.178c-0.158,0.439-0.589,0.71-1.059,0.655l-0.34-0.04c-5.367-0.647-10.646,1.172-14.477,4.995
		C12.756,31.27,10.998,32,9.12,32z"/>
</g>
<g>
	<path fill="#EBEBEB" d="M27,6c-0.256,0-0.512-0.098-0.707-0.293c-0.391-0.391-0.391-1.023,0-1.414l1-1
		c0.391-0.391,1.023-0.391,1.414,0s0.391,1.023,0,1.414l-1,1C27.512,5.902,27.256,6,27,6z"/>
</g>
<g>
	<path fill="#EBEBEB" d="M21,8c-0.256,0-0.512-0.098-0.707-0.293c-0.391-0.391-0.391-1.023,0-1.414l1-1
		c0.391-0.391,1.023-0.391,1.414,0s0.391,1.023,0,1.414l-1,1C21.512,7.902,21.256,8,21,8z"/>
</g>
<g>
	<path fill="#EBEBEB" d="M21,15c-0.256,0-0.512-0.098-0.707-0.293c-0.391-0.391-0.391-1.023,0-1.414l1-1
		c0.391-0.391,1.023-0.391,1.414,0s0.391,1.023,0,1.414l-1,1C21.512,14.902,21.256,15,21,15z"/>
</g>
<g>
	<path fill="#EBEBEB" d="M25,11c-0.256,0-0.512-0.098-0.707-0.293c-0.391-0.391-0.391-1.023,0-1.414l1-1
		c0.391-0.391,1.023-0.391,1.414,0s0.391,1.023,0,1.414l-1,1C25.512,10.902,25.256,11,25,11z"/>
</g>
<g>
	<path fill="#EBEBEB" d="M17,13c-0.256,0-0.512-0.098-0.707-0.293c-0.391-0.391-0.391-1.023,0-1.414l1-1
		c0.391-0.391,1.023-0.391,1.414,0s0.391,1.023,0,1.414l-1,1C17.512,12.902,17.256,13,17,13z"/>
</g>
<g>
	<path fill="#8BC02F" d="M5.586,29.707c-1.068,0-2.073-0.416-2.828-1.171l-0.707-0.708C0.729,26.506,0,24.749,0,22.878
		c0-1.87,0.729-3.627,2.051-4.949c3.825-3.826,5.646-9.101,4.997-14.472L7.007,3.121C6.951,2.658,7.222,2.218,7.66,2.06
		c0.436-0.16,0.928,0.006,1.181,0.399l2.188,3.402c4.551,7.072,3.538,16.521-2.408,22.468l-0.207,0.207
		C7.658,29.291,6.654,29.707,5.586,29.707z"/>
</g>
</svg>
