<?xml version="1.0" encoding="utf-8"?>
<!-- Generator: Adobe Illustrator 21.0.0, SVG Export Plug-In . SVG Version: 6.00 Build 0)  -->
<svg version="1.1" id="color" xmlns="http://www.w3.org/2000/svg" xmlns:xlink="http://www.w3.org/1999/xlink" x="0px" y="0px"
	 viewBox="0 0 32 32" enable-background="new 0 0 32 32" xml:space="preserve">
<g>
	<path fill="#42A141" d="M9,32c-4.963,0-9-4.037-9-9c0-2.403,0.936-4.663,2.636-6.364l14-14c0.391-0.391,1.023-0.391,1.414,0
		L29.364,13.95c0.391,0.391,0.391,1.023,0,1.414l-14,14C13.663,31.064,11.403,32,9,32z"/>
</g>
<g>
	<path fill="#8BC02F" d="M23,18c-4.963,0-9-4.037-9-9s4.037-9,9-9s9,4.037,9,9S27.963,18,23,18z"/>
</g>
<g>
	<path fill="#EBEBEB" d="M26,7c-0.256,0-0.512-0.098-0.707-0.293c-0.391-0.391-0.391-1.023,0-1.414l1-1
		c0.391-0.391,1.023-0.391,1.414,0s0.391,1.023,0,1.414l-1,1C26.512,6.902,26.256,7,26,7z"/>
</g>
<g>
	<path fill="#EBEBEB" d="M19,14c-0.256,0-0.512-0.098-0.707-0.293c-0.391-0.391-0.391-1.023,0-1.414l1-1
		c0.391-0.391,1.023-0.391,1.414,0s0.391,1.023,0,1.414l-1,1C19.512,13.902,19.256,14,19,14z"/>
</g>
<g>
	<path fill="#EBEBEB" d="M26,14c-0.256,0-0.512-0.098-0.707-0.293c-0.391-0.391-0.391-1.023,0-1.414l1-1
		c0.391-0.391,1.023-0.391,1.414,0s0.391,1.023,0,1.414l-1,1C26.512,13.902,26.256,14,26,14z"/>
</g>
<g>
	<path fill="#EBEBEB" d="M19,7c-0.256,0-0.512-0.098-0.707-0.293c-0.391-0.391-0.391-1.023,0-1.414l1-1
		c0.391-0.391,1.023-0.391,1.414,0s0.391,1.023,0,1.414l-1,1C19.512,6.902,19.256,7,19,7z"/>
</g>
</svg>
