<?xml version="1.0" encoding="utf-8"?>
<!-- Generator: Adobe Illustrator 21.0.0, SVG Export Plug-In . SVG Version: 6.00 Build 0)  -->
<svg version="1.1" id="color" xmlns="http://www.w3.org/2000/svg" xmlns:xlink="http://www.w3.org/1999/xlink" x="0px" y="0px"
	 viewBox="0 0 32 32" enable-background="new 0 0 32 32" xml:space="preserve">
<g>
	<path fill="#42A141" d="M25.999,6.5c-0.497,0-0.928-0.37-0.991-0.876c-0.068-0.548,0.32-1.048,0.868-1.116
		c1.986-0.248,3.655-1.755,4.154-3.75c0.134-0.535,0.68-0.86,1.213-0.728c0.536,0.134,0.861,0.677,0.728,1.213
		c-0.698,2.79-3.047,4.9-5.846,5.25C26.082,6.498,26.04,6.5,25.999,6.5z"/>
</g>
<g>
	<path fill="#9C56B8" d="M9.5,32C4.262,32,0,27.738,0,22.5c0-2.922,1.319-5.643,3.62-7.464l8.662-6.821
		C12.458,8.076,12.675,8,12.9,8H18c0.552,0,1,0.448,1,1v4h4c0.552,0,1,0.448,1,1v5.1c0,0.225-0.076,0.442-0.214,0.619l-6.82,8.66
		C15.143,30.681,12.422,32,9.5,32z M23,19.1h0.01H23z"/>
</g>
<g>
	<path fill="#8BC02F" d="M23,20.1c-0.109,0-0.22-0.018-0.328-0.055C22.27,19.905,22,19.526,22,19.1V15h-4c-0.552,0-1-0.448-1-1v-4
		h-4.1c-0.426,0-0.805-0.27-0.945-0.672s-0.009-0.849,0.326-1.113l4.58-3.61C18.201,3.554,19.804,3,21.5,3
		c4.136,0,7.5,3.364,7.5,7.5c0,1.696-0.554,3.299-1.603,4.637l-3.612,4.582C23.592,19.964,23.3,20.1,23,20.1z"/>
</g>
</svg>
