<?xml version="1.0" encoding="utf-8"?>
<!-- Generator: Adobe Illustrator 21.0.0, SVG Export Plug-In . SVG Version: 6.00 Build 0)  -->
<svg version="1.1" id="color" xmlns="http://www.w3.org/2000/svg" xmlns:xlink="http://www.w3.org/1999/xlink" x="0px" y="0px"
	 viewBox="0 0 32 32" enable-background="new 0 0 32 32" xml:space="preserve">
<g>
	<path fill="#42A141" d="M15.003,21.497c-0.171,0-0.343-0.044-0.499-0.134c-0.396-0.228-0.588-0.696-0.464-1.137l2.67-9.5
		c0.048-0.17,0.14-0.324,0.267-0.447l9.87-9.58c0.977-0.944,2.552-0.931,3.514,0.031L31.27,1.64
		c0.961,0.961,0.976,2.537,0.032,3.513L15.721,21.193C15.527,21.393,15.267,21.497,15.003,21.497z"/>
</g>
<g>
	<path fill="#8BC02F" d="M15,21.5c-0.262,0-0.518-0.103-0.707-0.293l-3.5-3.5c-0.246-0.246-0.347-0.602-0.266-0.939l3.521-14.755
		C14.242,0.873,15.278,0,16.5,0h2C19.879,0,21,1.121,21,2.5c0,0.229-0.031,0.456-0.093,0.676l-4.944,17.595
		c-0.097,0.342-0.366,0.607-0.71,0.697C15.169,21.489,15.084,21.5,15,21.5z"/>
</g>
<g>
	<path fill="#EBEBEB" d="M3.945,31.892c-1.904-0.391-3.445-1.933-3.836-3.836c-0.395-1.924,0.312-3.809,1.794-4.98l8.625-6.308
		l5.193,4.426l-6.785,8.892c-0.004,0.004-0.007,0.009-0.011,0.013C7.754,31.58,5.868,32.287,3.945,31.892z M8.141,29.478h0.01H8.141
		z"/>
</g>
</svg>
