<?xml version="1.0" encoding="utf-8"?>
<!-- Generator: Adobe Illustrator 21.0.0, SVG Export Plug-In . SVG Version: 6.00 Build 0)  -->
<svg version="1.1" id="color" xmlns="http://www.w3.org/2000/svg" xmlns:xlink="http://www.w3.org/1999/xlink" x="0px" y="0px"
	 viewBox="0 0 32 32" enable-background="new 0 0 32 32" xml:space="preserve">
<path fill="#8BC02F" d="M29.37,13.23c-0.23-0.43-0.34-0.91-0.34-1.39c0-0.7,0.24-1.41,0.7-2.01C30.58,8.73,31,7.45,31,6.2
	c0-1.37-0.51-2.71-1.52-3.7c-1.01-1-2.36-1.5-3.75-1.5c-1.26,0-2.56,0.42-3.67,1.26c-1.03,0.77-2.37,0.91-3.43,0.36l-1.37-0.71
	c-1.79-0.93-4.08-0.53-5.61,0.99h-0.01c-1.47,1.46-1.91,3.63-1.08,5.37l0.13,0.26c0.56,1.2-0.06,2.69-1.35,3.24l-0.57,0.24
	c-2.24,0.96-3.36,3.52-2.46,5.62l1.53,3.54L1.62,27.4c-0.83,0.82-0.83,2.16,0,2.98C2.03,30.8,2.57,31,3.11,31
	c0.54,0,1.08-0.2,1.49-0.62l6.33-6.32l3.37,1.57c0.54,0.25,1.12,0.37,1.69,0.37c1.87,0,3.71-1.26,4.31-3.2
	c0.34-1.09,1.37-1.8,2.42-1.8c0.32,0,0.64,0.07,0.95,0.21c0.6,0.28,1.24,0.41,1.9,0.41c1.27,0,2.56-0.51,3.54-1.48
	c1.53-1.52,1.94-3.79,0.99-5.55L29.37,13.23z"/>
<path fill="#42A141" d="M30.252,12.76c-0.146-0.272-0.223-0.591-0.223-0.92c0-0.488,0.175-0.986,0.491-1.398
	C31.475,9.208,32,7.702,32,6.2c0-1.696-0.646-3.264-1.816-4.411C29.019,0.636,27.437,0,25.73,0c-1.509,0-3.027,0.52-4.269,1.459
	C20.74,1.997,19.81,2.105,19.09,1.732l-1.369-0.71c-2.131-1.105-4.865-0.658-6.69,1.085c-0.033,0.025-0.065,0.054-0.095,0.083
	C9.156,3.958,8.643,6.573,9.665,8.716l0.119,0.237c0.144,0.309,0.15,0.67,0.018,1.016c-0.15,0.393-0.461,0.714-0.851,0.879
	l-0.575,0.243c-1.318,0.564-2.358,1.595-2.93,2.9c-0.581,1.328-0.601,2.761-0.054,4.035l1.263,2.923L0.91,26.693
	C0.323,27.281,0,28.062,0,28.893s0.323,1.611,0.911,2.198C1.517,31.697,2.313,32,3.11,32c0.796,0,1.593-0.303,2.199-0.909
	l5.831-5.831l2.74,1.277C14.534,26.84,15.263,27,15.99,27c2.39,0,4.555-1.605,5.264-3.902c0.253-0.81,1.218-1.33,1.992-0.981
	c2.071,0.965,4.831,0.452,6.568-1.267c1.84-1.827,2.319-4.597,1.167-6.732L30.252,12.76z M28.937,9.222
	c-0.584,0.762-0.907,1.692-0.907,2.618c0,0.656,0.159,1.301,0.459,1.863l0.731,1.361c0.735,1.363,0.4,3.158-0.814,4.364
	c-1.155,1.146-2.96,1.507-4.326,0.869c-1.888-0.847-4.135,0.282-4.736,2.207C18.897,23.95,17.487,25,15.99,25
	c-0.439,0-0.878-0.096-1.268-0.276l-2.067-0.963c2.779-2.697,5.988-4.843,9.554-6.37l1.185-0.508
	c0.508-0.218,0.743-0.806,0.525-1.313c-0.218-0.509-0.805-0.745-1.313-0.525l-1.184,0.508c-3.952,1.692-7.496,4.092-10.535,7.132
	l-6.993,6.992c-0.433,0.432-1.137,0.432-1.57,0C2.115,29.467,2,29.188,2,28.893c0-0.297,0.115-0.575,0.325-0.785l7.037-7.037
	c3.348-3.348,5.909-7.287,7.61-11.709c0.199-0.516-0.059-1.095-0.574-1.293c-0.513-0.194-1.094,0.059-1.292,0.574
	c-1.561,4.057-3.896,7.679-6.933,10.777l-0.944-2.183c-0.325-0.76-0.308-1.627,0.05-2.443c0.367-0.838,1.036-1.5,1.88-1.861
	l0.573-0.242c0.888-0.379,1.595-1.109,1.938-2.006c0.328-0.856,0.302-1.771-0.084-2.6l-0.123-0.245
	c-0.636-1.333-0.309-2.992,0.813-4.157c0.027-0.022,0.054-0.047,0.08-0.072c1.214-1.207,3.041-1.54,4.445-0.812l1.37,0.71
	c1.396,0.725,3.158,0.548,4.494-0.45c1.885-1.429,4.601-1.346,6.116,0.156C29.567,3.985,30,5.046,30,6.2
	C30,7.262,29.623,8.333,28.937,9.222z"/>
</svg>
