<?xml version="1.0" encoding="utf-8"?>
<!-- Generator: Adobe Illustrator 21.0.0, SVG Export Plug-In . SVG Version: 6.00 Build 0)  -->
<svg version="1.1" id="color" xmlns="http://www.w3.org/2000/svg" xmlns:xlink="http://www.w3.org/1999/xlink" x="0px" y="0px"
	 viewBox="0 0 32 32" enable-background="new 0 0 32 32" xml:space="preserve">
<path fill="#BF9760" d="M30.97,14.49l-0.06-0.56c-0.4-3.67-2.21-6.91-4.88-9.22C23.36,2.4,19.84,1,16,1C8.33,1,1.89,6.58,1.09,13.93
	l-0.06,0.56C1.01,14.67,1,14.84,1,15.02C1,17.73,3.29,20,6.18,20c2.06,0,3.92-1.18,4.74-2.98L9.03,28.66C9.01,28.77,9,28.89,9,29
	c0,1.1,0.9,2,2,2h10c1.1,0,2-0.9,2-2c0-0.11-0.01-0.23-0.03-0.34l-1.89-11.64c0.39,0.86,1.02,1.57,1.79,2.09
	c0.85,0.57,1.87,0.89,2.95,0.89C28.89,20,31.29,17.43,30.97,14.49z"/>
<path fill="#8D5836" d="M31.965,14.381l-0.061-0.561C31.043,5.941,24.205,0,16,0C7.794,0,0.958,5.941,0.096,13.819L0.035,14.38
	c-0.18,1.647,0.36,3.309,1.48,4.559C2.69,20.249,4.39,21,6.181,21c1.162,0,2.271-0.331,3.226-0.9l-1.361,8.381
	C8.016,28.649,8,28.832,8,29c0,1.654,1.346,3,3,3h10c1.654,0,3-1.346,3-3c0-0.169-0.016-0.354-0.043-0.5l-1.365-8.406
	C23.548,20.664,24.655,21,25.819,21c1.79,0,3.491-0.751,4.666-2.062C31.605,17.688,32.145,16.027,31.965,14.381z M28.996,17.604
	C28.2,18.491,27.042,19,25.819,19c-1.738,0-3.313-1.045-3.919-2.601c-0.992-2.548-0.433-4.552,1.533-5.499
	c0.498-0.239,0.707-0.837,0.468-1.334c-0.24-0.497-0.837-0.706-1.335-0.467c-2.302,1.108-4.176,3.798-2.529,8.026
	c0.02,0.051,0.049,0.095,0.07,0.145l1.879,11.573C21.996,28.894,22,28.95,22,29c0,0.551-0.448,1-1,1H11c-0.551,0-1-0.449-1-1
	c0-0.052,0.004-0.109,0.017-0.18l1.864-11.481c0.032-0.053,0.064-0.105,0.093-0.169c0.705-1.565,1.622-6.067-2.54-8.071
	C8.937,8.86,8.34,9.069,8.099,9.566c-0.24,0.498-0.031,1.095,0.467,1.335c0.942,0.454,1.541,1.09,1.83,1.945
	c0.435,1.287,0.038,2.76-0.173,3.328c-0.049,0.068-0.091,0.144-0.123,0.226c0,0,0,0.001-0.001,0.002C9.493,17.956,7.918,19,6.181,19
	c-1.223,0-2.38-0.509-3.176-1.396c-0.753-0.84-1.102-1.907-0.981-3.006l0.062-0.561C2.834,7.175,8.817,2,16,2
	c7.183,0,13.166,5.175,13.916,12.036l0.061,0.561C30.097,15.696,29.748,16.764,28.996,17.604z"/>
</svg>
