<?xml version="1.0" encoding="utf-8"?>
<!-- Generator: Adobe Illustrator 21.0.0, SVG Export Plug-In . SVG Version: 6.00 Build 0)  -->
<svg version="1.1" id="color" xmlns="http://www.w3.org/2000/svg" xmlns:xlink="http://www.w3.org/1999/xlink" x="0px" y="0px"
	 viewBox="0 0 32 32" enable-background="new 0 0 32 32" xml:space="preserve">
<g>
	<path fill="#8BC02F" d="M12.753,32c-2.233,0-4.475-0.697-6.36-2.115c-1.379-1.038-3.108-1.62-4.813-1.571c-0.008,0-0.016,0-0.024,0
		c-0.683,0-1.278-0.44-1.485-1.101c-0.201-0.644,0.036-1.327,0.591-1.699l0,0c9.862-6.628,18.223-14.99,24.852-24.853
		c0.373-0.555,1.059-0.791,1.701-0.59c0.668,0.209,1.11,0.815,1.101,1.509c-0.024,1.725,0.533,3.434,1.571,4.813
		c3.156,4.193,2.737,10.154-0.974,13.864l-8.653,8.653C18.215,30.955,15.49,32,12.753,32z M1.779,27.174
		c-0.001,0-0.001,0-0.002,0.001h0C1.778,27.174,1.778,27.174,1.779,27.174z M1.551,26.313L1.551,26.313L1.551,26.313z"/>
</g>
<g>
	<path fill="#42A141" d="M19,22c-1.654,0-3-1.346-3-3s1.346-3,3-3s3,1.346,3,3S20.654,22,19,22z"/>
</g>
<g>
	<path fill="#42A141" d="M12,28c-1.654,0-3-1.346-3-3s1.346-3,3-3s3,1.346,3,3S13.654,28,12,28z"/>
</g>
<g>
	<path fill="#42A141" d="M25,15c-1.654,0-3-1.346-3-3s1.346-3,3-3s3,1.346,3,3S26.654,15,25,15z"/>
</g>
</svg>
