<?xml version="1.0" encoding="utf-8"?>
<!-- Generator: Adobe Illustrator 21.0.0, SVG Export Plug-In . SVG Version: 6.00 Build 0)  -->
<svg version="1.1" id="color" xmlns="http://www.w3.org/2000/svg" xmlns:xlink="http://www.w3.org/1999/xlink" x="0px" y="0px"
	 viewBox="0 0 32 32" enable-background="new 0 0 32 32" xml:space="preserve">
<g>
	<path fill="#F2C500" d="M16,21c-0.396,0-0.755-0.234-0.916-0.597l-5.5-12.5C9.441,7.577,9.482,7.199,9.692,6.911l4.287-5.882
		C14.447,0.385,15.203,0,16,0s1.553,0.385,2.021,1.029l4.287,5.882c0.21,0.288,0.25,0.666,0.107,0.992l-5.5,12.5
		C16.755,20.766,16.396,21,16,21z"/>
</g>
<g>
	<path fill="#BF9760" d="M16,32C9.383,32,4,24.864,4,16.092c0-4.457,1.413-8.731,3.877-11.727C8.072,4.128,8.358,3.996,8.669,4
		c0.306,0.006,0.592,0.152,0.777,0.396c2.76,3.636,4.918,7.708,6.554,12.377c1.636-4.669,3.794-8.741,6.554-12.377
		C22.738,4.152,23.025,4.006,23.331,4c0.314-0.001,0.598,0.128,0.792,0.365C26.587,7.361,28,11.635,28,16.092
		C28,24.864,22.617,32,16,32z"/>
</g>
</svg>
