<?xml version="1.0" encoding="utf-8"?>
<!-- Generator: Adobe Illustrator 21.0.0, SVG Export Plug-In . SVG Version: 6.00 Build 0)  -->
<svg version="1.1" id="color" xmlns="http://www.w3.org/2000/svg" xmlns:xlink="http://www.w3.org/1999/xlink" x="0px" y="0px"
	 viewBox="0 0 32 32" enable-background="new 0 0 32 32" xml:space="preserve">
<g>
	<path fill="#8D5836" d="M19.421,22.998c-0.025,0-0.051,0-0.076,0l-1.15-0.011c-5.995-0.057-11.799-2.788-15.921-7.493
		c-2.87-3.273-3.043-8.445-0.404-12.029C4.418,0.005,8.862-1,12.439,1.071c2.854,1.655,5.849,2.811,8.899,3.438
		c4.394,0.901,7.319,5.587,6.521,10.445c0,0,0,0,0,0.001l-0.063,0.384C27.065,19.788,23.549,22.998,19.421,22.998z M26.872,14.792
		h0.01H26.872z"/>
</g>
<g>
	<path fill="#EBEBEB" d="M14.85,2.33C14.53,3.7,13.74,4.94,12.6,5.8C12.42,5.94,12.21,6,12,6c-0.3,0-0.6-0.14-0.8-0.4
		c-0.33-0.44-0.24-1.07,0.2-1.4c0.9-0.68,1.48-1.72,1.58-2.84C13.6,1.71,14.22,2.04,14.85,2.33z"/>
</g>
<g>
	<path fill="#EBEBEB" d="M4.999,11c-0.448,0-0.855-0.303-0.969-0.757C3.896,9.707,4.222,9.164,4.758,9.03
		C5.489,8.847,6,8.192,6,7.438V7c0-0.552,0.447-1,1-1s1,0.448,1,1v0.438c0,1.673-1.134,3.126-2.758,3.532
		C5.161,10.991,5.079,11,4.999,11z"/>
</g>
<g>
	<path fill="#EBEBEB" d="M9,16v0.44c0,1.36-0.75,2.57-1.9,3.19c-0.63-0.39-1.24-0.83-1.83-1.3c0.11-0.14,0.29-0.25,0.49-0.3
		C6.49,17.85,7,17.19,7,16.44V16c0-0.55,0.45-1,1-1S9,15.45,9,16z"/>
</g>
<g>
	<path fill="#EBEBEB" d="M12.999,14c-0.448,0-0.855-0.303-0.969-0.757c-0.135-0.536,0.191-1.079,0.728-1.213
		C13.489,11.847,14,11.192,14,10.438V10c0-0.552,0.447-1,1-1s1,0.448,1,1v0.438c0,1.673-1.134,3.126-2.758,3.532
		C13.161,13.991,13.079,14,12.999,14z"/>
</g>
<g>
	<path fill="#EBEBEB" d="M23.93,5.57C23.68,7,22.77,8.23,21.45,8.89C21.3,8.97,21.15,9,21,9c-0.37,0-0.72-0.2-0.89-0.55
		c-0.25-0.5-0.05-1.1,0.44-1.34C21.45,6.66,22,5.76,22,4.76V4.67C22.69,4.88,23.33,5.18,23.93,5.57z"/>
</g>
<g>
	<path fill="#BF9760" d="M16.829,32c-3.284,0-6.083-2.388-6.669-5.699l-0.049-0.275c-0.641-3.632,1.695-7.131,5.209-7.801
		c2.329-0.444,4.614-1.263,6.791-2.435c2.834-1.525,6.357-0.777,8.382,1.775c2.127,2.682,1.987,6.554-0.325,9.005
		c-3.262,3.455-7.663,5.38-12.396,5.422L16.888,32C16.868,32,16.849,32,16.829,32z"/>
</g>
<g>
	<path fill="#EBEBEB" d="M16.98,22.2C16.89,22.67,16.47,23,16,23c-0.06,0-0.13-0.01-0.2-0.02c-0.54-0.11-0.89-0.63-0.78-1.18
		c0.2-0.98-0.33-1.99-1.26-2.39l-0.68-0.29c0.66-0.43,1.42-0.74,2.24-0.9c0.07-0.01,0.14-0.03,0.21-0.04c0.01,0,0.01,0,0.01,0
		C16.7,19.13,17.28,20.68,16.98,22.2z"/>
</g>
<g>
	<path fill="#EBEBEB" d="M21.999,27c-0.15,0-0.303-0.034-0.446-0.106c-0.494-0.247-0.694-0.848-0.447-1.342
		c0.147-0.295,0.172-0.63,0.067-0.943c-0.104-0.313-0.324-0.567-0.62-0.715c-0.494-0.247-0.694-0.848-0.447-1.342
		c0.248-0.495,0.848-0.695,1.342-0.447c0.773,0.387,1.35,1.051,1.623,1.871c0.273,0.82,0.211,1.698-0.176,2.471
		C22.719,26.798,22.366,27,21.999,27z"/>
</g>
<g>
	<path fill="#EBEBEB" d="M25.89,18.45C25.72,18.8,25.37,19,25,19c-0.15,0-0.3-0.03-0.45-0.11c-0.49-0.24-0.69-0.84-0.44-1.34
		c0.39-0.79,0.25-1.73-0.36-2.37c0.75-0.18,1.52-0.22,2.27-0.13C26.47,16.12,26.44,17.36,25.89,18.45z"/>
</g>
</svg>
