<?xml version="1.0" encoding="utf-8"?>
<!-- Generator: Adobe Illustrator 21.0.0, SVG Export Plug-In . SVG Version: 6.00 Build 0)  -->
<svg version="1.1" id="color" xmlns="http://www.w3.org/2000/svg" xmlns:xlink="http://www.w3.org/1999/xlink" x="0px" y="0px"
	 viewBox="0 0 32 32" enable-background="new 0 0 32 32" xml:space="preserve">
<g>
	<path fill="#F59D00" d="M16,7.982c-0.552,0-1-0.447-1-1c0-3.372,2.4-6.3,5.707-6.961c0.543-0.11,1.116,0.232,1.225,0.773
		c0.109,0.541-0.192,1.059-0.733,1.168c-0.001,0-0.099,0.02-0.099,0.02c-2.376,0.476-4.1,2.578-4.1,5
		C17,7.534,16.552,7.982,16,7.982z"/>
</g>
<g>
	<path fill="#F59D00" d="M22,31c-0.874,0-1.752-0.141-2.608-0.419c-0.412-0.134-0.691-0.518-0.691-0.951V8.37
		c0-0.434,0.279-0.817,0.691-0.951C20.248,7.141,21.126,7,22,7c5.514,0,10,5.383,10,12S27.514,31,22,31z"/>
</g>
<g>
	<path fill="#F59D00" d="M10,31C4.486,31,0,25.617,0,19S4.486,7,10,7c0.875,0,1.752,0.141,2.609,0.419
		C13.021,7.553,13.3,7.937,13.3,8.37v21.26c0,0.434-0.279,0.817-0.691,0.951C11.752,30.859,10.875,31,10,31z"/>
</g>
<g>
	<path fill="#F2C500" d="M16,32c-4.962,0-9-5.832-9-13s4.038-13,9-13c4.963,0,9,5.832,9,13S20.963,32,16,32z"/>
</g>
</svg>
