<?xml version="1.0" encoding="utf-8"?>
<!-- Generator: Adobe Illustrator 21.0.0, SVG Export Plug-In . SVG Version: 6.00 Build 0)  -->
<svg version="1.1" id="color" xmlns="http://www.w3.org/2000/svg" xmlns:xlink="http://www.w3.org/1999/xlink" x="0px" y="0px"
	 viewBox="0 0 32 32" enable-background="new 0 0 32 32" xml:space="preserve">
<path fill="#8BC02F" d="M21.928,0.629c-0.205-0.512-0.787-0.762-1.3-0.557l-0.357,0.143C18.385,0.969,16.908,2.348,16,4.051
	c-0.909-1.703-2.385-3.082-4.271-3.836l-0.357-0.143c-0.514-0.207-1.095,0.043-1.3,0.557c-0.206,0.513,0.044,1.095,0.557,1.3
	l0.357,0.144c2.437,0.975,4.012,3.3,4.014,5.925C15,7.998,15,7.999,15,8c0,0.55,0.446,1.001,1,1.001c0.552,0,1-0.448,1-1
	C17,8,17,7.999,17,7.997c0.001-2.625,1.576-4.951,4.014-5.926l0.357-0.143C21.884,1.723,22.134,1.141,21.928,0.629z"/>
<g>
	<g>
		<path fill="#E94B35" d="M16,7c-5.7,0-10,4.09-10,9.5c0,2.82,1.45,5.22,3.23,7.38c4.52-2.51,9.02-2.51,13.54,0
			C24.54,21.73,26,19.32,26,16.5C26,11.09,21.7,7,16,7z"/>
	</g>
</g>
<g>
	<path fill="#C23824" d="M9.23,23.88c0.75,0.93,1.57,1.8,2.35,2.64c0.59,0.63,1.16,1.25,1.66,1.84c1.45,1.7,1.79,2.89,1.79,2.89
		c0.11,0.44,0.51,0.75,0.96,0.75H16c0.45,0,0.85-0.3,0.97-0.74c0-0.01,0.34-1.2,1.79-2.91c0.51-0.59,1.08-1.2,1.67-1.84
		c0.78-0.84,1.59-1.71,2.34-2.63C18.25,21.37,13.75,21.37,9.23,23.88z"/>
</g>
<g>
	<path fill="#C23824" d="M10,14c0,0.55-0.45,1-1,1H6.11c0.11-0.7,0.3-1.37,0.55-2H9C9.55,13,10,13.45,10,14z"/>
</g>
<g>
	<path fill="#C23824" d="M25.98,17c-0.04,0.69-0.16,1.36-0.36,2H23c-0.55,0-1-0.45-1-1s0.45-1,1-1H25.98z"/>
</g>
</svg>
