<?xml version="1.0" encoding="utf-8"?>
<!-- Generator: Adobe Illustrator 21.0.0, SVG Export Plug-In . SVG Version: 6.00 Build 0)  -->
<svg version="1.1" id="color" xmlns="http://www.w3.org/2000/svg" xmlns:xlink="http://www.w3.org/1999/xlink" x="0px" y="0px"
	 viewBox="0 0 32 32" enable-background="new 0 0 32 32" xml:space="preserve">
<g>
	<path fill="#8BC02F" d="M3.939,32c-1.27,0-2.88-1.257-3.296-2.36c-1.688-4.478,0.013-8.978,4.331-11.464
		c0.298-0.172,0.627-0.688,0.641-0.878c-0.103-3.859,1.856-6.538,5.824-7.951c0.902-0.32,1.172-0.692,1.63-1.803
		c0.756-1.831,2.222-4.041,4.069-4.75c3.556-1.363,7.317-2.058,10.954-2.729c0.985-0.183,1.879,0.018,2.58,0.582
		c0.799,0.643,1.263,1.706,1.308,2.995c0.023,0.665,0.02,1.331,0.015,1.997l-0.004,0.954c0.003,5.59-1.172,7.362-6.284,9.485
		c-0.359,0.148-0.786,0.616-0.83,0.803c-0.451,3.358-2.43,5.649-5.883,6.802c-0.899,0.301-1.145,0.652-1.584,1.793
		c-0.665,1.729-2.098,3.765-3.8,4.412c-3.092,1.175-6.491,1.697-9.434,2.096C4.1,31.995,4.02,32,3.939,32z"/>
</g>
<g>
	<path fill="#42A141" d="M23.5,12c-3.136,0-5.5-1.505-5.5-3.5S20.364,5,23.5,5S29,6.505,29,8.5S26.636,12,23.5,12z"/>
</g>
<g>
	<path fill="#42A141" d="M15.5,20c-3.136,0-5.5-1.505-5.5-3.5s2.364-3.5,5.5-3.5s5.5,1.505,5.5,3.5S18.636,20,15.5,20z"/>
</g>
<g>
	<path fill="#42A141" d="M9,27c-2.565,0-4.5-1.29-4.5-3s1.935-3,4.5-3s4.5,1.29,4.5,3S11.565,27,9,27z"/>
</g>
</svg>
