<?xml version="1.0" encoding="utf-8"?>
<!-- Generator: Adobe Illustrator 21.0.0, SVG Export Plug-In . SVG Version: 6.00 Build 0)  -->
<svg version="1.1" id="color" xmlns="http://www.w3.org/2000/svg" xmlns:xlink="http://www.w3.org/1999/xlink" x="0px" y="0px"
	 viewBox="0 0 32 32" enable-background="new 0 0 32 32" xml:space="preserve">
<g>
	<path fill="#8BC02F" d="M19.245,30.012c-0.587,0-1.17-0.074-1.737-0.227l-9.282-2.499c-1.725-0.464-3.031-1.771-3.495-3.495
		l-2.499-9.282C1.559,12.007,2.408,9.185,4.45,7.143c1.625-1.627,3.776-2.512,5.9-2.425c0.783,0.033,1.519-0.24,2.044-0.769
		c1.783-1.782,4.185-2.678,6.461-2.408c1.286,0.153,2.38-0.018,3.246-0.51c2.833-1.606,6.111-1.316,8.156,0.728
		c2.02,2.021,2.315,5.381,0.72,8.173c-0.485,0.851-0.654,1.938-0.502,3.233c0.268,2.267-0.627,4.676-2.395,6.442
		c-0.541,0.54-0.814,1.266-0.782,2.059c0.085,2.124-0.799,4.275-2.425,5.9C23.295,29.146,21.249,30.012,19.245,30.012z"/>
</g>
<path fill="#42A141" d="M24,14h-4.586l4.293-4.293c0.391-0.391,0.391-1.023,0-1.414s-1.023-0.391-1.414,0L18,12.586V8
	c0-0.553-0.447-1-1-1s-1,0.447-1,1v6.586l-4,4V12c0-0.553-0.447-1-1-1s-1,0.447-1,1v8.586l-9.707,9.707
	c-0.391,0.391-0.391,1.023,0,1.414C0.488,31.902,0.744,32,1,32s0.512-0.098,0.707-0.293L11.414,22H20c0.553,0,1-0.447,1-1
	s-0.447-1-1-1h-6.586l4-4H24c0.553,0,1-0.447,1-1S24.553,14,24,14z"/>
</svg>
