<?xml version="1.0" encoding="utf-8"?>
<!-- Generator: Adobe Illustrator 21.0.0, SVG Export Plug-In . SVG Version: 6.00 Build 0)  -->
<svg version="1.1" id="color" xmlns="http://www.w3.org/2000/svg" xmlns:xlink="http://www.w3.org/1999/xlink" x="0px" y="0px"
	 viewBox="0 0 32 32" enable-background="new 0 0 32 32" xml:space="preserve">
<g>
	<path fill="#F2C500" d="M12.184,32c-3.621,0-7.138-1.366-10.142-3.986c-0.755-0.658-2.151-2.306-2.035-3.833
		c0.089-1.161,1.141-2.002,2.068-2.743c0.168-0.134,0.332-0.265,0.48-0.392l0.501-0.425c3.563-3.023,4.52-3.836,7.391-9.722
		c2.873-5.891,6.526-9.226,11.496-10.496c2.019-0.517,4.207-0.537,6.327-0.061c1.025,0.23,4.148,0.931,3.682,4.45
		c-0.262,1.988-3.36,13.46-4.807,16.656c-2.439,5.385-6.749,9.106-11.825,10.211C14.273,31.887,13.224,32,12.184,32z"/>
</g>
<g>
	<path fill="#EBEBEB" d="M23,10c-0.553,0-1-0.448-1-1c0-0.551-0.448-1-1-1c-0.553,0-1-0.448-1-1s0.447-1,1-1c1.654,0,3,1.346,3,3
		C24,9.552,23.553,10,23,10z"/>
</g>
<g>
	<path fill="#EBEBEB" d="M23,17c-0.553,0-1-0.448-1-1c0-0.551-0.448-1-1-1c-0.553,0-1-0.448-1-1s0.447-1,1-1c1.654,0,3,1.346,3,3
		C24,16.552,23.553,17,23,17z"/>
</g>
<g>
	<path fill="#EBEBEB" d="M16,18c-0.553,0-1-0.448-1-1c0-0.551-0.448-1-1-1c-0.553,0-1-0.448-1-1s0.447-1,1-1c1.654,0,3,1.346,3,3
		C17,17.552,16.553,18,16,18z"/>
</g>
<g>
	<path fill="#EBEBEB" d="M18,26c-0.553,0-1-0.448-1-1c0-0.551-0.448-1-1-1c-0.553,0-1-0.448-1-1s0.447-1,1-1c1.654,0,3,1.346,3,3
		C19,25.552,18.553,26,18,26z"/>
</g>
<g>
	<path fill="#EBEBEB" d="M10,26c-0.553,0-1-0.448-1-1c0-0.551-0.448-1-1-1c-0.553,0-1-0.448-1-1s0.447-1,1-1c1.654,0,3,1.346,3,3
		C11,25.552,10.553,26,10,26z"/>
</g>
</svg>
