<?xml version="1.0" encoding="utf-8"?>
<!-- Generator: Adobe Illustrator 21.0.0, SVG Export Plug-In . SVG Version: 6.00 Build 0)  -->
<svg version="1.1" id="color" xmlns="http://www.w3.org/2000/svg" xmlns:xlink="http://www.w3.org/1999/xlink" x="0px" y="0px"
	 viewBox="0 0 32 32" enable-background="new 0 0 32 32" xml:space="preserve">
<g>
	<path fill="#E94B35" d="M16,32C7.729,32,1,25.944,1,18.5c0-3.785,1.693-7.289,4.768-9.866L6.046,8.4h19.907l0.279,0.234
		C29.307,11.211,31,14.715,31,18.5C31,25.944,24.271,32,16,32z"/>
</g>
<g>
	<path fill="#42A141" d="M16,6.5c-0.552,0-1-0.448-1-1c0-1.469-0.816-2.791-2.13-3.447l-0.316-0.158
		c-0.494-0.247-0.695-0.847-0.448-1.341c0.246-0.494,0.845-0.695,1.341-0.448l0.317,0.158C15.76,1.262,17,3.268,17,5.5
		C17,6.052,16.552,6.5,16,6.5z"/>
</g>
<g>
	<path fill="#8BC02F" d="M16,19c-0.345,0-0.665-0.178-0.848-0.47l-2.04-3.264l-3.706,1.647c-0.342,0.152-0.739,0.101-1.031-0.133
		c-0.292-0.233-0.429-0.61-0.355-0.977l0.843-4.216l-2.86-1.274C5.688,10.173,5.468,9.88,5.42,9.54
		C5.372,9.198,5.503,8.856,5.767,8.634C8.555,6.291,12.189,5,16,5c3.812,0,7.445,1.291,10.233,3.634
		c0.264,0.222,0.395,0.564,0.347,0.905c-0.048,0.341-0.269,0.633-0.583,0.774l-2.859,1.274l0.843,4.216
		c0.073,0.367-0.063,0.744-0.355,0.977c-0.292,0.234-0.692,0.285-1.031,0.133l-3.706-1.647l-2.04,3.264
		C16.665,18.822,16.345,19,16,19z"/>
</g>
</svg>
