<?xml version="1.0" encoding="utf-8"?>
<!-- Generator: Adobe Illustrator 21.0.0, SVG Export Plug-In . SVG Version: 6.00 Build 0)  -->
<svg version="1.1" id="color" xmlns="http://www.w3.org/2000/svg" xmlns:xlink="http://www.w3.org/1999/xlink" x="0px" y="0px"
	 viewBox="0 0 32 32" enable-background="new 0 0 32 32" xml:space="preserve">
<g>
	<path fill="#42A141" d="M19.83,13.332c-0.219,0-0.434-0.072-0.61-0.208l-2.53-1.95c-0.231-0.178-0.373-0.448-0.388-0.739l-0.3-5.7
		c-0.08-1.703,0.782-3.283,2.249-4.129c1.035-0.601,2.246-0.762,3.412-0.45c1.165,0.312,2.136,1.057,2.735,2.099
		c0.257,0.437,0.431,0.91,0.51,1.397c0.033,0.201,0.003,0.408-0.085,0.593l-4.09,8.521c-0.13,0.272-0.376,0.471-0.67,0.54
		C19.985,13.323,19.907,13.332,19.83,13.332z"/>
</g>
<g>
	<path fill="#42A141" d="M27.478,16.004c-0.072,0-0.144-0.002-0.216-0.005l-5.696-0.3c-0.293-0.016-0.564-0.159-0.742-0.393
		l-1.871-2.45c-0.181-0.237-0.247-0.543-0.179-0.834c0.068-0.291,0.263-0.537,0.531-0.669l8.44-4.17
		c0.187-0.093,0.396-0.126,0.602-0.091c0.488,0.078,0.961,0.252,1.409,0.516c1.033,0.593,1.778,1.564,2.089,2.729
		c0.312,1.164,0.151,2.377-0.452,3.414C30.585,15.154,29.099,16.004,27.478,16.004z"/>
</g>
<g>
	<path fill="#8BC02F" d="M19.831,13.33c-0.3,0-0.592-0.136-0.784-0.377c-0.365-0.29-0.488-0.806-0.269-1.236l4.71-9.26
		c0.007-0.015,0.015-0.029,0.023-0.044C24.292,0.923,25.815,0,27.5,0C29.981,0,32,2.019,32,4.5c0,1.683-0.921,3.204-2.408,3.985
		c-0.016,0.009-0.032,0.018-0.049,0.026l-9.259,4.71C20.138,13.295,19.983,13.33,19.831,13.33z"/>
</g>
<g>
	<path fill="#E94B35" d="M0.293,31.707c-0.235-0.234-0.338-0.57-0.275-0.896c0.008-0.042,0.812-4.233,1.043-7.074
		c0.068-0.834,0.103-1.636,0.137-2.411c0.156-3.556,0.304-6.914,3.579-10.189c4.354-4.354,11.095-4.179,15.68,0.407
		c4.586,4.586,4.761,11.327,0.408,15.681l0,0c-3.274,3.274-6.63,3.422-10.183,3.578c-0.775,0.034-1.577,0.069-2.412,0.138
		c-2.846,0.231-7.039,1.034-7.081,1.043C0.852,32.045,0.522,31.937,0.293,31.707z"/>
</g>
</svg>
