<?xml version="1.0" encoding="utf-8"?>
<!-- Generator: Adobe Illustrator 21.0.0, SVG Export Plug-In . SVG Version: 6.00 Build 0)  -->
<svg version="1.1" id="color" xmlns="http://www.w3.org/2000/svg" xmlns:xlink="http://www.w3.org/1999/xlink" x="0px" y="0px"
	 viewBox="0 0 32 32" enable-background="new 0 0 32 32" xml:space="preserve">
<g>
	<path fill="#F2C500" d="M1,32c-0.256,0-0.512-0.098-0.707-0.293c-0.391-0.391-0.391-1.023,0-1.414l9.5-9.5
		c0.391-0.391,1.023-0.391,1.414,0s0.391,1.023,0,1.414l-9.5,9.5C1.512,31.902,1.256,32,1,32z"/>
</g>
<g>
	<path fill="#F2C500" d="M24.297,9.506c-0.276,0-0.559-0.01-0.847-0.029c-0.499-0.034-0.896-0.432-0.93-0.931
		c-0.182-2.732,0.521-4.975,2.031-6.486c1.512-1.512,3.765-2.214,6.489-2.032c0.501,0.033,0.898,0.432,0.932,0.933
		c0.179,2.739-0.527,4.985-2.043,6.496C28.577,8.805,26.642,9.506,24.297,9.506z"/>
</g>
<g>
	<path fill="#F59D00" d="M25.743,15c-1.999,0-3.995-0.926-5.934-2.778c-0.198-0.189-0.31-0.451-0.31-0.724s0.112-0.535,0.311-0.723
		c3.883-3.7,7.992-3.7,11.879,0.002C31.888,10.966,32,11.228,32,11.502c0,0.274-0.112,0.536-0.312,0.724
		C29.741,14.075,27.74,15,25.743,15z"/>
</g>
<g>
	<path fill="#F59D00" d="M20.499,12.5L20.499,12.5c-0.274,0-0.535-0.112-0.724-0.311c-3.701-3.885-3.7-7.993,0.002-11.879
		C19.966,0.112,20.228,0,20.501,0c0,0,0,0,0.001,0c0.273,0,0.535,0.113,0.725,0.312c3.699,3.896,3.698,8.003-0.005,11.879
		C21.033,12.388,20.772,12.5,20.499,12.5z"/>
</g>
<g>
	<path fill="#F2C500" d="M20.743,20c-1.999,0-3.996-0.926-5.934-2.778c-0.198-0.189-0.309-0.451-0.309-0.724
		s0.112-0.535,0.311-0.723c3.884-3.701,7.993-3.7,11.879,0.002C26.888,15.966,27,16.228,27,16.502c0,0.274-0.112,0.536-0.312,0.724
		C24.741,19.075,22.74,20,20.743,20z"/>
</g>
<g>
	<path fill="#F2C500" d="M15.499,17.5C15.499,17.5,15.499,17.5,15.499,17.5c-0.274,0-0.536-0.112-0.724-0.311
		c-3.7-3.885-3.699-7.993,0.002-11.879C14.966,5.112,15.228,5,15.501,5c0,0,0,0,0.001,0c0.273,0,0.536,0.113,0.724,0.312
		c3.7,3.896,3.699,8.003-0.004,11.879C16.033,17.388,15.772,17.5,15.499,17.5z"/>
</g>
<g>
	<path fill="#F59D00" d="M15.743,25c-1.999,0-3.996-0.926-5.934-2.777C9.611,22.033,9.5,21.771,9.5,21.498s0.112-0.535,0.311-0.723
		c3.884-3.7,7.993-3.7,11.879,0.002C21.888,20.966,22,21.228,22,21.502c0,0.274-0.112,0.536-0.312,0.724
		C19.741,24.075,17.741,25,15.743,25z"/>
</g>
<g>
	<path fill="#F59D00" d="M10.499,22.5C10.499,22.5,10.499,22.5,10.499,22.5c-0.274,0-0.536-0.112-0.724-0.311
		c-3.7-3.885-3.699-7.993,0.002-11.879C9.966,10.112,10.228,10,10.501,10c0,0,0,0,0.001,0c0.274,0,0.536,0.113,0.724,0.312
		c3.699,3.896,3.698,8.004-0.004,11.879C11.033,22.388,10.772,22.5,10.499,22.5z"/>
</g>
</svg>
